<?xml version="1.0" standalone="no"?>
<!DOCTYPE svg PUBLIC "-//W3C//DTD SVG 20010904//EN"
 "http://www.w3.org/TR/2001/REC-SVG-20010904/DTD/svg10.dtd">
<svg version="1.0" xmlns="http://www.w3.org/2000/svg"
 width="323.000000pt" height="258.000000pt" viewBox="0 0 323.000000 258.000000"
 preserveAspectRatio="xMidYMid meet">

<g transform="translate(0.000000,258.000000) scale(0.100000,-0.100000)"
fill="#000000" stroke="none">
<path d="M2317 2500 c-70 -22 -84 -58 -98 -247 -6 -81 -15 -150 -19 -153 -5
-3 -8 -111 -8 -240 0 -129 -3 -261 -7 -292 -7 -54 -10 -60 -55 -93 -26 -19
-59 -52 -74 -73 -24 -36 -35 -41 -159 -80 -232 -74 -261 -85 -289 -103 -14
-11 -32 -19 -40 -19 -18 0 -36 43 -27 66 4 11 10 56 13 100 4 43 9 89 12 101
3 15 0 21 -8 18 -31 -11 -57 44 -58 120 0 33 -38 112 -57 120 -16 5 -16 1 -13
-180 4 -197 2 -246 -10 -260 -5 -6 -12 -34 -16 -61 -12 -113 -40 -166 -102
-195 l-37 -17 96 -1 c105 -1 110 1 144 69 10 19 20 30 22 23 2 -6 -15 -51 -39
-100 -56 -115 -56 -152 -5 -256 21 -42 42 -77 47 -77 9 0 141 -209 155 -245 4
-11 15 -78 24 -150 l17 -130 51 -3 c67 -4 272 25 291 41 12 10 14 33 8 132
-21 403 -31 481 -79 621 l-25 71 62 30 c75 38 167 106 246 184 l60 58 142 -10
c233 -18 319 -4 346 56 7 15 19 102 27 194 11 135 17 168 30 176 65 39 82 68
45 80 -27 9 -49 -10 -43 -35 3 -12 0 -20 -7 -20 -6 0 -10 6 -7 13 2 6 0 22 -4
35 -10 27 3 54 47 94 29 26 64 83 64 105 0 4 -10 14 -21 22 -19 11 -24 10 -42
-8 -16 -16 -18 -23 -8 -34 12 -16 5 -67 -9 -67 -11 0 -17 116 -8 141 4 10 16
19 26 19 36 0 69 59 42 75 -5 3 -20 -1 -32 -9 -31 -22 -38 -20 -38 8 0 14 13
37 29 53 16 15 37 42 47 58 l18 30 -37 -34 -37 -35 0 96 c0 121 -11 153 -61
178 -60 31 -467 62 -532 40z m59 -125 c-3 -18 -8 -19 -36 -12 -30 8 -24 27 9
27 21 0 29 -5 27 -15z m54 -22 c0 -2 -9 -3 -20 -3 -13 0 -20 7 -20 20 0 19 1
19 20 3 11 -10 20 -19 20 -20z m56 26 c10 -17 -13 -36 -27 -22 -12 12 -4 33
11 33 5 0 12 -5 16 -11z m287 -34 c-4 -15 -66 -12 -71 3 -3 10 6 13 34 10 22
-2 38 -7 37 -13z m-168 -49 c29 -44 -18 -96 -66 -73 -27 14 -38 60 -18 83 19
23 66 17 84 -10z m-157 -98 c23 -23 14 -38 -18 -32 -25 6 -31 3 -40 -20 -14
-39 -12 -99 4 -122 13 -16 18 -17 36 -6 20 12 21 11 18 -10 -5 -34 -58 -33
-75 2 -21 42 -17 143 8 174 22 28 48 33 67 14z m99 -74 c15 -87 16 -157 3
-149 -5 3 -10 17 -10 31 0 22 -4 25 -27 22 -20 -2 -29 -9 -31 -25 -4 -26 -22
-32 -22 -8 0 14 34 159 46 193 10 31 30 1 41 -64z m68 -3 c-3 -36 -9 -78 -11
-93 -5 -25 -3 -28 20 -28 17 0 26 -5 26 -16 0 -11 -8 -14 -32 -12 l-33 3 3
100 c3 110 7 130 23 120 7 -5 8 -30 4 -74z m80 -31 c-7 -98 -7 -100 14 -100
11 0 21 -4 21 -9 0 -16 -20 -23 -45 -17 -22 6 -23 10 -19 64 11 128 16 162 26
162 6 0 7 -35 3 -100z m212 -32 c-3 -8 -6 -5 -6 6 -1 11 2 17 5 13 3 -3 4 -12
1 -19z m-478 -196 c6 -21 14 -53 17 -71 7 -32 8 -31 28 35 14 44 27 69 36 69
12 0 14 -15 12 -80 -4 -90 -9 -118 -22 -110 -5 3 -7 31 -4 63 l4 57 -21 -62
c-11 -35 -25 -63 -29 -63 -5 0 -12 17 -16 38 -15 89 -22 100 -23 35 -1 -35 -5
-63 -11 -63 -6 0 -10 38 -10 95 0 77 3 95 15 95 8 0 19 -16 24 -38z m246 -14
c-10 -85 -16 -109 -26 -103 -5 3 -6 34 -3 68 7 75 10 87 25 87 7 0 9 -16 4
-52z m-58 30 c-2 -7 -14 -12 -25 -10 -19 3 -22 -2 -22 -27 0 -24 4 -31 20 -31
27 0 25 -18 -2 -22 -18 -2 -23 -10 -23 -33 0 -24 5 -31 23 -33 20 -3 29 -25 9
-23 -4 1 -19 1 -33 1 -25 0 -26 1 -20 63 3 34 5 77 6 95 0 30 2 32 36 32 24 0
34 -4 31 -12z m43 -162 c0 -8 -4 -17 -9 -21 -12 -7 -24 12 -16 25 9 15 25 12
25 -4z m-89 -46 c24 -13 49 -61 49 -96 0 -16 -13 -39 -35 -61 -32 -32 -40 -35
-73 -30 -24 4 -47 17 -66 38 -24 27 -27 38 -23 73 10 70 85 109 148 76z m-941
-749 c0 -6 -4 -13 -10 -16 -5 -3 -10 1 -10 9 0 9 5 16 10 16 6 0 10 -4 10 -9z"/>
<path d="M2506 2109 c-9 -45 -8 -49 9 -49 13 0 15 7 9 38 -9 48 -10 49 -18 11z"/>
<path d="M1047 2274 c27 -7 70 -69 78 -115 6 -33 3 -39 -27 -63 l-33 -27 45 6
c25 4 53 9 62 11 14 4 16 1 11 -12 -3 -10 -2 -15 3 -12 5 4 10 -9 12 -28 1
-19 8 -50 16 -68 18 -44 8 -59 -61 -86 -91 -36 -281 -134 -364 -189 -123 -80
-137 -111 -76 -172 34 -34 47 -31 23 5 -20 32 -21 70 -1 86 13 11 15 8 15 -19
0 -38 16 -33 25 8 8 36 42 68 128 120 64 39 234 120 284 135 19 6 53 -4 106
-31 4 -2 7 1 7 7 0 6 -11 16 -25 22 -14 6 -25 14 -25 18 0 14 49 17 84 5 20
-7 36 -10 36 -7 0 3 7 -3 15 -14 8 -11 15 -14 15 -6 0 6 11 12 23 12 19 0 30
-13 56 -65 32 -67 50 -82 52 -42 1 16 2 18 6 5 5 -21 19 -23 26 -5 3 6 6 -6 6
-27 1 -22 9 -49 19 -60 15 -18 15 -19 0 -8 -15 12 -17 7 -16 -70 l2 -84 30 28
31 29 0 117 c0 112 -1 120 -31 177 -18 33 -40 83 -50 110 -21 57 -76 115 -196
205 -87 66 -169 97 -268 104 -36 3 -55 3 -43 0z m580 -606 c-3 -7 -5 -2 -5 12
0 14 2 19 5 13 2 -7 2 -19 0 -25z"/>
<path d="M1230 1743 c-30 -12 -72 -46 -62 -52 5 -3 11 -15 13 -26 3 -11 16
-24 31 -29 22 -8 32 -6 48 9 21 19 27 60 10 70 -22 14 -8 23 22 14 40 -11 50
-3 14 11 -29 11 -52 12 -76 3z m-20 -62 c0 -6 -4 -13 -10 -16 -5 -3 -10 1 -10
9 0 9 5 16 10 16 6 0 10 -4 10 -9z"/>
<path d="M1146 1665 c-3 -9 -6 -24 -5 -33 0 -9 5 -4 10 12 9 32 6 48 -5 21z"/>
<path d="M883 1559 c-42 -20 -73 -71 -52 -84 5 -4 9 3 9 13 0 11 9 30 20 43
19 23 19 23 20 3 0 -42 60 -70 88 -42 7 7 12 26 12 44 0 24 -5 33 -22 38 -31
8 -28 9 -75 -15z m37 -29 c0 -5 -7 -10 -15 -10 -8 0 -15 5 -15 10 0 6 7 10 15
10 8 0 15 -4 15 -10z"/>
<path d="M1363 1448 c-13 -13 -23 -28 -23 -32 0 -9 -42 -45 -53 -46 -4 0 -33
-16 -63 -35 -30 -19 -61 -35 -69 -35 -8 0 -30 -8 -49 -18 -30 -16 -32 -20 -20
-37 8 -10 14 -15 14 -10 0 4 12 -5 26 -20 22 -24 31 -27 70 -22 86 9 163 89
184 193 16 76 11 92 -17 62z m-48 -107 c13 -21 -150 -116 -179 -105 -29 11
-17 30 27 41 23 6 62 25 87 42 49 33 56 36 65 22z"/>
<path d="M1175 1440 c-12 -4 -27 -15 -35 -25 -8 -9 -26 -21 -40 -27 -23 -9
-24 -10 -7 -22 24 -18 62 -9 97 24 47 44 38 72 -15 50z"/>
<path d="M936 1101 c-4 -5 3 -7 14 -4 23 6 26 13 6 13 -8 0 -17 -4 -20 -9z"/>
<path d="M990 1080 c-8 -5 -12 -12 -9 -15 4 -3 12 1 19 10 14 17 11 19 -10 5z"/>
<path d="M1014 1035 c-20 -30 -10 -47 11 -19 14 18 20 44 10 44 -2 0 -12 -11
-21 -25z"/>
<path d="M1229 1009 c-9 -18 -6 -26 23 -56 36 -37 128 -98 128 -84 0 4 -9 16
-20 26 -11 10 -20 15 -20 11 0 -3 -13 0 -30 9 -21 11 -29 22 -28 38 2 19 -27
77 -38 77 -2 0 -8 -9 -15 -21z"/>
<path d="M970 923 c-43 -29 -72 -57 -81 -80 -18 -49 -75 -16 -81 47 l-3 35
-27 -51 c-15 -28 -37 -64 -50 -80 -13 -16 -37 -67 -52 -114 -15 -47 -36 -100
-47 -118 -22 -38 -18 -67 17 -129 28 -48 79 -83 121 -83 42 0 138 35 192 69
61 39 151 81 175 81 28 0 95 -75 134 -147 23 -44 34 -81 39 -128 3 -37 11 -68
17 -70 28 -9 225 -15 230 -7 10 17 -17 147 -45 219 -35 87 -90 193 -118 229
-29 37 -44 98 -42 174 l2 65 -63 31 c-35 17 -67 40 -73 52 -5 12 -12 22 -15
22 -16 0 -176 -73 -197 -90 -32 -25 -40 -25 -54 2 -10 19 -7 25 27 54 41 35
37 45 -6 17z m370 -323 c0 -5 -5 -10 -11 -10 -5 0 -7 5 -4 10 3 6 8 10 11 10
2 0 4 -4 4 -10z m-104 -39 c-8 -13 -36 -15 -36 -3 0 4 5 13 12 20 14 14 34 0
24 -17z"/>
</g>
</svg>
