<?xml version="1.0" standalone="no"?>
<!DOCTYPE svg PUBLIC "-//W3C//DTD SVG 20010904//EN"
 "http://www.w3.org/TR/2001/REC-SVG-20010904/DTD/svg10.dtd">
<svg version="1.0" xmlns="http://www.w3.org/2000/svg"
 width="298.000000pt" height="278.000000pt" viewBox="0 0 298.000000 278.000000"
 preserveAspectRatio="xMidYMid meet">

<g transform="translate(0.000000,278.000000) scale(0.100000,-0.100000)"
fill="#000000" stroke="none">
<path d="M1594 2713 c26 -7 46 -28 46 -47 0 -9 7 -34 16 -56 12 -29 13 -44 6
-53 -6 -7 -7 -18 -3 -25 10 -17 2 -64 -10 -56 -5 3 -9 0 -9 -7 0 -7 -3 -10 -6
-6 -4 3 -21 -5 -39 -18 -17 -14 -40 -25 -51 -26 -10 0 -28 -5 -39 -10 -13 -6
2 -7 45 -3 36 4 89 8 118 9 45 1 51 -1 46 -17 -9 -30 -13 -117 -5 -122 8 -5 8
-93 0 -100 -2 -2 -76 -21 -164 -41 -250 -58 -482 -142 -549 -198 -33 -28 -38
-37 -32 -60 3 -15 19 -41 35 -59 l28 -31 -5 54 c-3 46 -1 57 17 73 28 25 32
19 20 -33 -14 -61 -4 -62 22 -2 31 74 67 101 135 101 42 0 54 3 54 15 0 18 27
30 134 57 61 16 80 17 86 8 5 -8 19 -10 41 -6 85 17 157 18 219 2 34 -9 65
-14 68 -11 7 7 6 7 -58 44 l-55 31 57 0 c65 0 88 -7 88 -26 0 -8 4 -14 9 -14
5 0 12 -19 16 -42 4 -24 16 -55 26 -70 24 -33 25 -103 3 -158 -9 -23 -14 -43
-11 -46 3 -3 1 -20 -4 -37 -6 -18 -12 -39 -14 -47 -1 -8 -10 -43 -19 -76 -9
-34 -16 -92 -16 -128 0 -52 -9 -90 -41 -179 -22 -61 -50 -132 -61 -157 -26
-59 -77 -95 -133 -94 l-42 1 7 -36 c4 -20 15 -52 26 -71 10 -19 22 -44 25 -55
5 -14 7 -10 8 16 1 19 -6 44 -14 55 -8 10 -15 29 -15 40 0 21 4 22 86 20 68
-1 89 -5 99 -19 17 -23 33 -22 120 13 42 17 81 28 87 24 10 -6 -116 -73 -139
-74 -7 0 -44 -16 -82 -35 -51 -26 -78 -47 -99 -78 -36 -52 -92 -196 -92 -235
0 -16 -7 -69 -16 -118 -8 -49 -17 -131 -20 -182 -3 -56 -11 -106 -20 -124 -8
-16 -14 -46 -12 -66 l3 -37 509 -3 c453 -2 512 0 534 14 14 9 43 56 69 111
l46 96 -17 81 c-51 246 -42 222 -120 306 -46 48 -88 106 -114 158 -54 102 -83
138 -128 152 -20 7 -54 30 -75 51 -50 50 -80 58 -128 31 -34 -19 -38 -20 -47
-4 -20 32 -17 166 6 249 64 231 78 268 109 279 38 15 60 50 82 132 22 76 26
231 7 265 -6 12 -13 33 -14 47 -18 173 -34 231 -79 279 -19 20 -55 64 -80 98
-60 82 -165 176 -240 218 -70 39 -184 75 -229 74 -20 -1 -24 -3 -12 -6z m491
-838 c12 0 22 9 26 25 6 23 7 23 8 3 1 -12 8 -28 16 -37 8 -8 15 -23 15 -33 0
-10 7 -27 15 -37 8 -11 15 -29 14 -40 0 -14 -2 -16 -6 -6 -11 35 -27 59 -35
54 -4 -3 -8 -28 -8 -55 0 -51 -13 -89 -30 -89 -6 0 -10 5 -10 11 0 7 -9 19
-20 29 -25 21 -42 94 -29 127 5 13 10 50 11 81 l1 57 6 -45 c5 -36 10 -45 26
-45z m-60 -567 c-29 -47 -29 -44 0 25 11 26 21 41 23 32 2 -8 -9 -34 -23 -57z
m-90 -547 c7 -12 -12 -24 -25 -16 -11 7 -4 25 10 25 5 0 11 -4 15 -9z"/>
<path d="M1670 1945 c-53 -17 -96 -57 -105 -100 -6 -24 -3 -22 16 14 l23 45 8
-32 c5 -17 13 -34 19 -37 5 -4 34 1 64 11 49 15 55 20 55 43 0 15 -5 32 -12
39 -18 18 6 16 43 -4 17 -8 36 -13 42 -11 14 5 -70 47 -93 46 -8 0 -35 -7 -60
-14z m-15 -55 c0 -7 -6 -15 -12 -17 -8 -3 -13 4 -13 17 0 13 5 20 13 18 6 -3
12 -11 12 -18z"/>
<path d="M1185 1806 c-37 -16 -51 -33 -60 -69 -10 -38 9 -34 20 5 6 17 21 38
34 47 23 14 23 14 17 -6 -9 -27 12 -73 33 -73 9 0 35 9 59 20 35 16 43 24 40
42 -6 45 -79 62 -143 34z m50 -35 c7 -12 -12 -24 -25 -16 -11 7 -4 25 10 25 5
0 11 -4 15 -9z"/>
<path d="M1566 1592 c-3 -5 -22 -13 -41 -16 -19 -4 -39 -16 -45 -26 -6 -12
-21 -20 -35 -20 -29 0 -32 -11 -7 -33 34 -30 163 15 162 57 -1 18 -28 48 -34
38z"/>
<path d="M1736 1496 c-22 -22 -51 -38 -74 -41 -58 -10 -105 -26 -124 -42 -9
-8 -21 -12 -27 -8 -6 3 -38 -7 -70 -23 -57 -28 -68 -42 -31 -42 9 0 25 -9 35
-20 43 -47 176 -10 253 71 38 39 89 126 79 135 -2 2 -20 -11 -41 -30z m-56
-86 c0 -6 -8 -13 -17 -17 -10 -3 -27 -14 -38 -23 -21 -18 -89 -40 -122 -40
-11 0 -26 7 -33 15 -10 12 -9 15 6 16 11 0 55 13 99 28 91 32 105 35 105 21z"/>
<path d="M803 1388 c-11 -13 -45 -61 -76 -108 -31 -47 -75 -105 -97 -129 -44
-49 -44 -49 -30 -87 7 -17 7 -31 1 -37 -14 -14 -49 2 -57 26 -3 12 -13 33 -21
46 l-15 23 -19 -31 c-28 -46 -25 -154 6 -276 42 -160 61 -192 155 -253 44 -29
91 -57 104 -63 29 -14 205 10 290 39 31 10 56 16 56 12 0 -4 -20 -67 -44 -141
-58 -176 -85 -307 -65 -320 8 -5 77 -9 155 -9 l141 0 10 142 c13 169 22 217
63 346 35 107 76 181 120 219 16 13 39 40 51 59 19 31 20 39 9 62 -7 15 -21
49 -31 76 -16 43 -17 51 -4 77 8 15 15 30 15 32 0 9 -116 45 -160 50 -93 12
-166 -18 -295 -120 -27 -21 -68 -46 -90 -55 -22 -9 -53 -23 -69 -32 -30 -15
-30 -15 -51 22 -12 20 -51 76 -88 125 l-67 87 44 88 c25 48 55 102 67 120 24
37 21 42 -8 10z m457 -552 c0 -3 -4 -8 -10 -11 -5 -3 -10 -1 -10 4 0 6 5 11
10 11 6 0 10 -2 10 -4z m117 -32 c-3 -3 -12 -4 -19 -1 -8 3 -5 6 6 6 11 1 17
-2 13 -5z m-164 -91 c9 -9 -12 -33 -29 -33 -17 0 -18 27 -1 33 18 8 23 8 30 0z
m157 -57 c0 -3 -4 -8 -10 -11 -5 -3 -10 -1 -10 4 0 6 5 11 10 11 6 0 10 -2 10
-4z m-115 -206 c-4 -6 -1 -17 5 -25 8 -10 9 -15 2 -15 -6 0 -14 5 -17 10 -7
12 0 40 10 40 4 0 3 -5 0 -10z m45 -20 c0 -5 -5 -10 -11 -10 -5 0 -7 5 -4 10
3 6 8 10 11 10 2 0 4 -4 4 -10z m-80 -310 c0 -5 -4 -10 -10 -10 -5 0 -10 5
-10 10 0 6 5 10 10 10 6 0 10 -4 10 -10z"/>
</g>
</svg>
